<?xml version="1.0" encoding="iso-8859-1"?>
<!-- Generator: Adobe Illustrator 19.0.0, SVG Export Plug-In . SVG Version: 6.00 Build 0)  -->
<svg version="1.1" id="Capa_1" xmlns="http://www.w3.org/2000/svg" xmlns:xlink="http://www.w3.org/1999/xlink" x="0px" y="0px"
	 viewBox="0 0 480 480" style="enable-background:new 0 0 480 480;" xml:space="preserve">
<path style="fill:#DCDCDA;" d="M384,72C373.031,30.477,325.461,0,272,0c-52.824,0-92.355,31.219-104,72
	c-32.461,0.434-63.05,15.446-72,40c-2.45-0.183-5.496,0-8,0c-45.082,0-80,32.722-80,72s34.918,72,80,72h280
	c57.313-1.957,104-46.203,104-96C472,114.481,434.317,79.683,384,72z"/>
<path style="fill:#ABAEA7;" d="M467.472,133.751C462.487,180.518,423.032,215.995,376,216H56
	c-15.657,0.012-31.056-3.993-44.723-11.633C23.029,236.331,53.963,257.149,88,256h280c57.313-1.957,104-46.203,104-96
	C471.996,151.056,470.465,142.179,467.472,133.751z"/>
<g>
	<path style="fill:#6CC3E1;" d="M72,296h16v48H72V296z"/>
	<path style="fill:#6CC3E1;" d="M72,368h16v48H72V368z"/>
</g>
<path style="fill:#6E9AE0;" d="M72,432h16v48H72V432z"/>
<g>
	<path style="fill:#6CC3E1;" d="M136,280h16v48h-16V280z"/>
	<path style="fill:#6CC3E1;" d="M136,352h16v48h-16V352z"/>
</g>
<path style="fill:#6E9AE0;" d="M136,416h16v48h-16V416z"/>
<g>
	<path style="fill:#6CC3E1;" d="M200,296h16v48h-16V296z"/>
	<path style="fill:#6CC3E1;" d="M200,368h16v48h-16V368z"/>
</g>
<path style="fill:#6E9AE0;" d="M200,432h16v48h-16V432z"/>
<g>
	<path style="fill:#6CC3E1;" d="M264,280h16v48h-16V280z"/>
	<path style="fill:#6CC3E1;" d="M264,352h16v48h-16V352z"/>
</g>
<path style="fill:#6E9AE0;" d="M264,416h16v48h-16V416z"/>
<g>
	<path style="fill:#6CC3E1;" d="M328,296h16v48h-16V296z"/>
	<path style="fill:#6CC3E1;" d="M328,368h16v48h-16V368z"/>
</g>
<path style="fill:#6E9AE0;" d="M328,432h16v48h-16V432z"/>
<path style="fill:#6CC3E1;" d="M392,280h16v48h-16V280z"/>
<g>
	<path style="fill:#6E9AE0;" d="M392,352h16v48h-16V352z"/>
	<path style="fill:#6E9AE0;" d="M392,416h16v48h-16V416z"/>
</g>
<g>
</g>
<g>
</g>
<g>
</g>
<g>
</g>
<g>
</g>
<g>
</g>
<g>
</g>
<g>
</g>
<g>
</g>
<g>
</g>
<g>
</g>
<g>
</g>
<g>
</g>
<g>
</g>
<g>
</g>
</svg>
